<?xml version="1.0" standalone="no"?><!DOCTYPE svg PUBLIC "-//W3C//DTD SVG 1.1//EN" "http://www.w3.org/Graphics/SVG/1.1/DTD/svg11.dtd"><svg t="1548314205168" class="icon" style="" viewBox="0 0 1024 1024" version="1.1" xmlns="http://www.w3.org/2000/svg" p-id="721" xmlns:xlink="http://www.w3.org/1999/xlink" width="18" height="18"><defs><style type="text/css"></style></defs><path d="M426.666667 405.333333v-128a42.666667 42.666667 0 1 1 85.333333 0v128h128a42.666667 42.666667 0 1 1 0 85.333334h-128v128a42.666667 42.666667 0 1 1-85.333333 0v-128h-128a42.666667 42.666667 0 1 1 0-85.333334h128z m385.088 346.090667l199.744 199.744a42.666667 42.666667 0 0 1-60.330667 60.330667l-199.744-199.744A456.789333 456.789333 0 0 1 458.666667 917.333333C205.354667 917.333333 0 711.978667 0 458.666667S205.354667 0 458.666667 0 917.333333 205.354667 917.333333 458.666667c0 111.296-39.637333 213.333333-105.578666 292.757333zM458.666667 832C664.853333 832 832 664.853333 832 458.666667S664.853333 85.333333 458.666667 85.333333 85.333333 252.48 85.333333 458.666667 252.48 832 458.666667 832z" fill="#ffffff" p-id="722"></path></svg>