<?xml version="1.0" standalone="no"?>
<!DOCTYPE svg PUBLIC "-//W3C//DTD SVG 1.1//EN" "http://www.w3.org/Graphics/SVG/1.1/DTD/svg11.dtd" >
<svg xmlns="http://www.w3.org/2000/svg">
<metadata>Generated by IcoMoon</metadata>
<defs>
<font id="xght-webfont" horiz-adv-x="1024">
<font-face units-per-em="1024" ascent="877.7142857142858" descent="-146.28571428571428" />
<missing-glyph horiz-adv-x="1024" />
<glyph unicode="&#x20;" horiz-adv-x="256" d="" />
<glyph unicode="&#xe900;" glyph-name="cog" d="M976.554 453.441c-3.645 21.772-23.251 44.003-43.719 48.816l-15.215 3.781c-35.789 11.571-67.505 36.898-87.757 74.139-20.145 37.472-24.965 80.1-16.178 119.058v0l4.82 15.357c6.11 21.198-1.82 50.418-17.786 64.974 0 0-14.358 12.95-54.649 37.814-40.397 24.753-57.755 31.626-57.755 31.626-19.611 7.678-47.147 0.343-61.506-15.927l-10.607-12.145c-27.108-27.502-63.648-44.118-104.045-44.118s-77.255 16.843-104.364 44.461l-10.285 11.803c-14.146 16.273-41.789 23.49-61.506 15.927 0 0-17.574-6.874-57.967-31.626-40.397-25.095-54.539-38.046-54.539-38.046-15.966-14.325-23.896-43.313-17.786-64.743l4.392-15.468c8.571-39.074 4.073-81.474-16.178-118.942s-52.29-63.025-88.291-74.37l-14.681-3.55c-20.145-4.929-39.968-26.928-43.719-48.816 0 0-3.322-19.597-3.322-69.441s3.322-69.441 3.322-69.441c3.645-21.999 23.251-44.003 43.719-48.816l14.358-3.55c36.001-11.344 68.256-36.898 88.401-74.597 20.145-37.472 24.965-80.1 16.178-119.058v0l-4.179-15.126c-6.11-21.198 1.82-50.418 17.786-64.974 0 0 14.358-12.95 54.649-37.814 40.397-24.864 57.755-31.626 57.755-31.626 19.611-7.678 47.147-0.343 61.506 15.927l10.073 11.571c27.324 27.618 64.077 44.576 104.58 44.576s77.472-17.074 104.58-44.688v0l10.073-11.571c14.146-16.273 41.789-23.49 61.506-15.927 0 0 17.574 6.874 57.967 31.626 40.397 24.864 54.539 37.814 54.539 37.814 15.966 14.325 23.896 43.544 17.786 64.974l-4.392 15.7c-8.571 38.846-4.073 81.243 16.178 118.484 20.145 37.472 52.502 63.137 88.401 74.597v0l14.358 3.55c20.145 4.929 39.968 26.928 43.719 48.816 0 0 3.322 19.597 3.322 69.441-0.212 49.848-3.534 69.556-3.534 69.556v0 0 0zM511.999 149.922c-129.115 0-234.047 104.724-234.047 234.181 0 129.189 104.664 233.913 234.047 233.913 129.115 0 234.047-104.724 234.047-234.181-0.268-129.189-104.932-233.913-234.047-233.913v0 0 0z" />
<glyph unicode="&#xe901;" glyph-name="tag" d="M825.292 821.333c9.173 0 17.946-1.737 26.318-5.211 13.147-5.006 23.616-12.905 31.406-23.698s11.673-22.738 11.653-35.837v-745.173c0-13.102-3.883-25.047-11.653-35.837s-18.235-18.692-31.406-23.698c-7.568-3.087-16.341-4.63-26.318-4.63-19.13 0-35.67 6.162-49.621 18.487l-263.671 245.099-263.671-245.099c-14.352-12.712-30.891-19.067-49.621-19.067-9.173 0-17.946 1.737-26.318 5.211-13.147 5.006-23.616 12.905-31.406 23.698s-11.673 22.738-11.653 35.837v745.173c0 13.102 3.883 25.047 11.653 35.837s18.235 18.692 31.406 23.698c8.369 3.474 17.142 5.211 26.318 5.211h626.585z" />
<glyph unicode="&#xe902;" glyph-name="th-large" d="M489.797 292.119v-203.082c0-18.342-7.329-34.207-21.986-47.593s-32.002-20.091-52.033-20.109h-296.045c-20.053 0-37.398 6.702-52.033 20.109s-21.964 29.272-21.986 47.593v203.082c0 18.342 7.329 34.207 21.986 47.593s32.002 20.091 52.033 20.109h296.045c20.053 0 37.398-6.702 52.033-20.109s21.964-29.272 21.986-47.593zM489.797 678.963v-203.082c0-18.342-7.329-34.207-21.986-47.593s-32.002-20.091-52.033-20.109h-296.045c-20.053 0-37.398 6.702-52.033 20.109s-21.964 29.272-21.986 47.593v203.082c0 18.342 7.329 34.207 21.986 47.593s32.002 20.091 52.033 20.109h296.045c20.053 0 37.398-6.702 52.033-20.109s21.964-29.272 21.986-47.593v0zM978.287 292.119v-203.082c0-18.342-7.329-34.207-21.986-47.593s-32.002-20.091-52.033-20.109h-296.045c-20.053 0-37.398 6.702-52.033 20.109s-21.964 29.272-21.986 47.593v203.082c0 18.342 7.329 34.207 21.986 47.593s32.002 20.091 52.033 20.109h296.045c20.053 0 37.398-6.702 52.033-20.109s21.964-29.272 21.986-47.593zM978.287 678.963v-203.082c0-18.342-7.329-34.207-21.986-47.593s-32.002-20.091-52.033-20.109h-296.045c-20.053 0-37.398 6.702-52.033 20.109s-21.964 29.272-21.986 47.593v203.082c0 18.342 7.329 34.207 21.986 47.593s32.002 20.091 52.033 20.109h296.045c20.053 0 37.398-6.702 52.033-20.109s21.964-29.272 21.986-47.593v0z" />
<glyph unicode="&#xe903;" glyph-name="folder-open" d="M972.8 318.556c0-11.281-5.073-23.285-15.216-36.013l-164.797-215.986c-14.063-18.551-33.766-34.282-59.108-47.193s-48.807-19.366-70.395-19.366h-533.64c-11.114 0-21.002 2.362-29.664 7.085s-12.992 12.543-12.992 23.459c0 11.281 5.073 23.285 15.216 36.013l164.797 215.986c14.063 18.551 33.766 34.282 59.108 47.193s48.807 19.366 70.395 19.366h533.64c11.114 0 21.002-2.362 29.664-7.085s12.992-12.543 12.992-23.459zM804.57 506.196v-87.267h-408.064c-30.744 0-62.952-8.633-96.626-25.901s-60.49-38.997-80.448-65.184l-167.736-219.285c0 1.445-0.083 3.717-0.248 6.812s-0.248 5.365-0.248 6.812v523.637c0 33.457 10.793 62.181 32.384 86.169s47.415 35.992 77.482 36.013h156.941c30.085 0 55.911-12.004 77.482-36.013s32.364-52.731 32.384-86.169v-17.44h266.807c30.085 0 55.911-12.004 77.482-36.013s32.364-52.731 32.384-86.169h0.027z" />
<glyph unicode="&#xe904;" glyph-name="lock" d="M355.551 426.692h312.9v128.014c0 47.113-15.273 87.336-45.823 120.661s-67.42 49.988-110.611 49.988c-43.19 0-80.061-16.663-110.611-49.988s-45.823-73.544-45.823-120.661v-128.014h-0.033zM864.001 362.663v-384.007c0-17.772-5.704-32.879-17.113-45.322s-25.256-18.668-41.548-18.668h-586.683c-16.291 0-30.139 6.221-41.548 18.668s-17.113 27.554-17.113 45.322v384.007c0 17.772 5.704 32.879 17.113 45.322s25.256 18.668 41.548 18.668h19.54v128.014c0 81.784 26.887 152.007 80.664 210.671s118.151 87.996 193.119 87.996c74.972 0 139.345-29.332 193.119-87.996s80.664-128.888 80.664-210.671v-128.014h19.54c16.291 0 30.139-6.221 41.548-18.668s17.113-27.554 17.113-45.322h0.033z" />
<glyph unicode="&#xe905;" glyph-name="unlock" d="M968.001 384.016c0-9.973-3.469-18.615-10.404-25.924s-15.162-10.952-24.677-10.93h-35.082c-9.495 0-17.72 3.644-24.677 10.93s-10.425 15.927-10.404 25.924v147.379c0 40.689-13.698 75.426-41.096 104.207s-60.463 43.172-99.198 43.172c-38.734 0-71.799-14.391-99.198-43.172s-41.096-63.516-41.096-104.207v-110.558h52.607c14.609 0 27.030-5.373 37.262-16.122s15.347-23.796 15.347-39.142v-331.643c0-15.348-5.116-28.395-15.347-39.142s-22.651-16.122-37.262-16.122h-526.163c-14.609 0-27.030 5.373-37.262 16.122s-15.347 23.796-15.347 39.142v331.643c0 15.348 5.116 28.395 15.347 39.142s22.651 16.122 37.262 16.122h368.311v110.558c0 71.019 24.021 131.763 72.065 182.233s105.869 75.705 173.474 75.705c67.605 0 125.43-25.234 173.474-75.705s72.065-111.214 72.065-182.233v-147.379z" />
<glyph unicode="&#xe906;" glyph-name="calendar" d="M682.666 732.445h-341.333v99.555h-128v-99.555h-41.645c-31.985 0-57.913-25.596-57.913-57.278v-681.887c0-31.635 25.596-57.278 57.278-57.278h681.887c31.635 0 57.278 25.596 57.278 57.278v681.887c0 31.635-26.156 57.278-57.913 57.278h-41.645v99.555h-128v-99.555zM213.334 32v501.334h597.334v-501.334h-597.334zM540.242 334.221v-199.111h195.758v199.111h-195.758z" />
<glyph unicode="&#xe907;" glyph-name="user" d="M967.963 95.149c0-35.982-15.766-64.392-47.297-85.226s-73.413-31.256-125.643-31.256h-566.083c-52.254 0-94.136 10.417-125.643 31.256s-47.273 49.246-47.297 85.226c0 15.884 0.761 31.398 2.284 46.542s4.546 31.481 9.068 49.010c4.522 17.529 10.242 33.798 17.155 48.809s16.201 29.627 27.856 43.848c11.655 14.222 25.040 26.36 40.152 36.418s33.576 18.075 55.387 24.052c21.811 5.978 45.882 8.973 72.215 8.992 3.892 0 12.96-3.225 27.204-9.672s30.323-13.642 48.242-21.584c17.919-7.942 41.241-15.136 69.968-21.584s57.549-9.672 86.471-9.672c28.92 0 57.744 3.225 86.471 9.672s52.049 13.642 69.968 21.584c17.919 7.942 33.998 15.136 48.242 21.584s23.31 9.672 27.204 9.672c26.333 0 50.404-2.998 72.215-8.992s40.272-14.011 55.387-24.052c15.113-10.041 28.497-22.18 40.152-36.418s20.94-28.854 27.856-43.848c6.916-14.994 12.636-31.263 17.155-48.809s7.545-33.883 9.068-49.010c1.523-15.127 2.284-30.642 2.284-46.542h-0.037zM707.429 602.257c0-51.638-19.086-95.725-57.257-132.266s-84.229-54.81-138.17-54.81c-53.943 0-100 18.269-138.17 54.81s-57.257 80.628-57.257 132.266c0 51.638 19.086 95.725 57.257 132.266s84.229 54.81 138.17 54.81c53.943 0 100-18.269 138.17-54.81s57.257-80.628 57.257-132.266z" />
<glyph unicode="&#xe908;" glyph-name="picture" d="M758.922 628.363l-162.204-199.593-79.183 80.4-246.491-267.475-84.291 73.133-163.481-113.858 0.003-115.634h977.451v190.709l-241.805 352.322zM240.486 465.453c59.977 0 108.603 48.626 108.603 108.609s-48.626 108.604-108.603 108.604c-59.983 0-108.609-48.623-108.609-108.604s48.627-108.609 108.609-108.609z" />
<glyph unicode="&#xe909;" glyph-name="upload-alt" d="M915.367-21.333h-806.76c-29.053 0-52.62 23.961-52.62 53.482v267.416c0 29.524 23.542 53.509 52.62 53.509 29.053 0 52.594-23.961 52.594-53.509v-213.932h701.544v213.932c0 29.524 23.514 53.509 52.594 53.509s52.646-23.961 52.646-53.509v-267.416c0.026-29.524-23.542-53.482-52.62-53.482v0zM669.849 504.134c-15.538 0-29.473 6.815-39.104 17.704v0l-66.136 74.7v-324.148c0-29.524-23.568-53.482-52.594-53.482-29.080 0-52.62 23.932-52.62 53.482v0 324.119l-66.136-74.7c-9.631-10.889-23.568-17.704-39.13-17.704-29.027 0-52.62 23.932-52.62 53.456 0 13.764 5.118 26.301 13.516 35.78v0l157.836 178.286c9.657 10.863 23.568 17.704 39.13 17.704 15.512 0 29.499-6.815 39.104-17.704v0l157.862-178.286c8.372-9.477 13.516-22.016 13.516-35.78 0-29.498-23.568-53.43-52.62-53.43v0z" />
<glyph unicode="&#xe90a;" glyph-name="upload" d="M558.667 10.666h186.667c128.867 0 233.333 114.914 233.333 256.667s-104.467 256.667-233.333 256.667c-0.317 0-0.634-0.001-0.952-0.002-10.717 130.819-110.666 233.335-232.382 233.335s-221.666-102.516-232.382-233.335c-0.317 0.001-0.634 0.002-0.952 0.002-128.867 0-233.333-114.914-233.333-256.667s104.467-256.667 233.333-256.667h186.667v186.667h-51.961c-22.874 0-31.050 15.591-18.317 34.824l124.912 188.672c8.347 12.609 22.246 12.819 30.732 0l124.912-188.672c12.838-19.391 4.532-34.824-18.317-34.824h-98.628v-186.667z" />
<glyph unicode="&#xe90b;" glyph-name="film" d="M227 65.524v57.904c0 7.836-2.817 14.625-8.452 20.366s-12.317 8.603-20.048 8.587h-57c-7.713 0-14.394-2.862-20.048-8.587s-8.47-12.513-8.452-20.366v-57.904c0-7.836 2.817-14.625 8.452-20.366s12.317-8.603 20.048-8.587h57c7.713 0 14.394 2.862 20.048 8.587s8.47 12.513 8.452 20.366zM227 239.237v57.904c0 7.836-2.817 14.625-8.452 20.366s-12.317 8.603-20.048 8.587h-57c-7.713 0-14.394-2.862-20.048-8.587s-8.47-12.513-8.452-20.366v-57.904c0-7.836 2.817-14.625 8.452-20.366s12.317-8.603 20.048-8.587h57c7.713 0 14.394 2.862 20.048 8.587s8.47 12.513 8.452 20.366zM227 470.857v57.904c0 7.836-2.817 14.625-8.452 20.366s-12.317 8.603-20.048 8.587h-57c-7.713 0-14.394-2.862-20.048-8.587s-8.47-12.513-8.452-20.366v-57.904c0-7.836 2.817-14.625 8.452-20.366s12.317-8.603 20.048-8.587h57c7.713 0 14.394 2.862 20.048 8.587s8.47 12.513 8.452 20.366zM708.333 72.765v231.613c0 7.837-2.817 14.626-8.453 20.367s-12.32 8.604-20.050 8.588h-341.992c-7.714 0-14.398-2.863-20.050-8.588s-8.471-12.514-8.453-20.367v-231.613c0-7.837 2.817-14.626 8.453-20.367s12.32-8.604 20.050-8.588h341.992c7.714 0 14.398 2.863 20.050 8.588s8.471 12.514 8.453 20.367zM227 644.571v57.904c0 7.836-2.817 14.625-8.452 20.366s-12.317 8.603-20.048 8.587h-57c-7.713 0-14.394-2.862-20.048-8.587s-8.47-12.513-8.452-20.366v-57.904c0-7.836 2.817-14.625 8.452-20.366s12.317-8.603 20.048-8.587h57c7.713 0 14.394 2.862 20.048 8.587s8.47 12.513 8.452 20.366zM911 65.524v57.904c0 7.836-2.817 14.625-8.452 20.366s-12.317 8.603-20.048 8.587h-57c-7.713 0-14.394-2.862-20.048-8.587s-8.47-12.513-8.452-20.366v-57.904c0-7.836 2.817-14.625 8.452-20.366s12.317-8.603 20.048-8.587h57c7.713 0 14.394 2.862 20.048 8.587s8.47 12.513 8.452 20.366zM708.333 478.098v231.613c0 7.837-2.817 14.626-8.453 20.367s-12.32 8.604-20.050 8.588h-341.992c-7.714 0-14.398-2.863-20.050-8.588s-8.471-12.514-8.453-20.367v-231.613c0-7.837 2.817-14.626 8.453-20.367s12.32-8.604 20.050-8.588h341.992c7.714 0 14.398 2.863 20.050 8.588s8.471 12.514 8.453 20.367zM911 239.237v57.904c0 7.836-2.817 14.625-8.452 20.366s-12.317 8.603-20.048 8.587h-57c-7.713 0-14.394-2.862-20.048-8.587s-8.47-12.513-8.452-20.366v-57.904c0-7.836 2.817-14.625 8.452-20.366s12.317-8.603 20.048-8.587h57c7.713 0 14.394 2.862 20.048 8.587s8.47 12.513 8.452 20.366zM911 470.857v57.904c0 7.836-2.817 14.625-8.452 20.366s-12.317 8.603-20.048 8.587h-57c-7.713 0-14.394-2.862-20.048-8.587s-8.47-12.513-8.452-20.366v-57.904c0-7.836 2.817-14.625 8.452-20.366s12.317-8.603 20.048-8.587h57c7.713 0 14.394 2.862 20.048 8.587s8.47 12.513 8.452 20.366zM911 644.571v57.904c0 7.836-2.817 14.625-8.452 20.366s-12.317 8.603-20.048 8.587h-57c-7.713 0-14.394-2.862-20.048-8.587s-8.47-12.513-8.452-20.366v-57.904c0-7.836 2.817-14.625 8.452-20.366s12.317-8.603 20.048-8.587h57c7.713 0 14.394 2.862 20.048 8.587s8.47 12.513 8.452 20.366zM968 56.613c0-21.444-7.439-39.796-22.318-55.057s-32.771-22.89-53.68-22.89h-760.004c-20.909 0-38.801 7.629-53.68 22.89s-22.318 33.613-22.318 55.057v654.776c0 21.444 7.439 39.796 22.318 55.057s32.771 22.89 53.68 22.89h760.004c20.909 0 38.801-7.629 53.68-22.89s22.318-33.613 22.318-55.057v-654.776z" />
<glyph unicode="&#xe90c;" glyph-name="zoom-in" d="M642.854 480.010h-135.761v135.901c0 25.018-20.286 45.299-45.253 45.299-25.010 0-45.253-20.281-45.253-45.299v-135.901h-135.761c-25.016 0-45.253-20.286-45.253-45.299 0-25.019 20.241-45.302 45.253-45.302h135.761v-135.902c0-25.015 20.243-45.298 45.253-45.298 24.97 0 45.254 20.286 45.254 45.298v135.902h135.761c24.97 0 45.253 20.286 45.253 45.302 0 25.015-20.286 45.299-45.253 45.299h-0.002zM991.36-28.159l-210.195 210.434c126.185 160.006 115.518 392.778-32.024 540.471-159.048 159.188-416.921 159.188-575.97 0-159.094-159.213-159.094-417.302 0-576.515 147.845-147.978 381.079-158.402 540.958-31.271l210.102-210.336c18.562-18.559 48.613-18.559 67.129 0 18.563 18.559 18.563 48.661 0 67.22v0.001zM684.841 211.264c-123.741-123.847-324.291-123.847-447.988 0-123.739 123.843-123.739 324.621 0 448.442 123.7 123.847 324.247 123.847 447.988 0 123.694-123.825 123.694-324.602 0-448.442v0z" />
<glyph unicode="&#xe90d;" glyph-name="delete" d="M394.261 479.59v-343.99c0-5.574-1.844-10.157-5.529-13.745s-8.389-5.385-14.114-5.385h-39.247c-5.722 0-10.426 1.794-14.114 5.385s-5.529 8.171-5.529 13.745v343.99c0 5.574 1.844 10.157 5.529 13.745s8.389 5.385 14.114 5.385h39.247c5.722 0 10.426-1.794 14.114-5.385s5.529-8.171 5.529-13.745v0zM551.215 479.59v-343.99c0-5.574-1.844-10.157-5.529-13.745s-8.389-5.385-14.114-5.385h-39.247c-5.722 0-10.426 1.794-14.114 5.385s-5.529 8.171-5.529 13.745v343.99c0 5.574 1.844 10.157 5.529 13.745s8.389 5.385 14.114 5.385h39.247c5.722 0 10.426-1.794 14.114-5.385s5.529-8.171 5.529-13.745v0zM708.202 479.59v-343.99c0-5.574-1.844-10.157-5.529-13.745s-8.389-5.385-14.114-5.385h-39.247c-5.722 0-10.426 1.794-14.114 5.385s-5.529 8.171-5.529 13.745v343.99c0 5.574 1.844 10.157 5.529 13.745s8.389 5.385 14.114 5.385h39.247c5.722 0 10.426-1.794 14.114-5.385s5.529-8.171 5.529-13.745v0zM786.662 47.245v566.149h-549.391v-566.149c0-8.761 1.431-16.823 4.291-24.179s5.824-12.73 8.892-16.121c3.067-3.388 5.219-5.084 6.454-5.084h510.145c1.235 0 3.387 1.694 6.454 5.084s6.032 8.761 8.892 16.121c2.863 7.356 4.291 15.418 4.291 24.179h-0.033zM374.618 689.809h274.694l-29.427 69.862c-2.863 3.588-6.34 5.775-10.438 6.554h-194.381c-4.098-0.803-7.578-2.986-10.438-6.554l-30.011-69.862zM943.652 670.682v-38.225c0-5.574-1.844-10.157-5.529-13.745s-8.389-5.385-14.114-5.385h-58.854v-566.149c0-33.041-9.603-61.611-28.809-85.714s-42.302-36.139-69.291-36.119h-510.145c-26.989 0-50.085 11.65-69.291 34.947s-28.809 51.469-28.809 84.51v568.524h-58.854c-5.722 0-10.426 1.794-14.114 5.385s-5.529 8.171-5.529 13.745v38.225c0 5.574 1.844 10.157 5.529 13.745s8.389 5.385 14.114 5.385h189.472l42.92 99.724c6.135 14.737 17.169 27.278 33.1 37.623s32.081 15.519 48.449 15.519h196.201c16.344 0 32.494-5.173 48.449-15.519s26.989-22.887 33.1-37.623l42.92-99.724h189.472c5.722 0 10.426-1.794 14.114-5.385s5.529-8.171 5.529-13.745h-0.033z" />
<glyph unicode="&#xe90e;" glyph-name="plus" d="M968.001 439.279v-110.558c0-15.348-6.045-28.395-18.137-39.142s-26.768-16.122-44.034-16.122h-269.469v-239.527c0-15.348-6.045-28.395-18.137-39.142s-26.768-16.122-44.034-16.122h-124.378c-17.266 0-31.944 5.373-44.034 16.122s-18.137 23.796-18.137 39.142v239.527h-269.469c-17.266 0-31.944 5.373-44.034 16.122s-18.137 23.796-18.137 39.142v110.558c0 15.348 6.045 28.395 18.137 39.142s26.768 16.122 44.034 16.122h269.469v239.527c0 15.348 6.045 28.395 18.137 39.142s26.768 16.122 44.034 16.122h124.378c17.266 0 31.944-5.373 44.034-16.122s18.137-23.796 18.137-39.142v-239.527h269.469c17.266 0 31.944-5.373 44.034-16.122s18.137-23.796 18.137-39.142v0z" />
<glyph unicode="&#xe90f;" glyph-name="angle-down" d="M953.6 559.326c0 7.301-2.957 13.769-8.87 19.402l-44.25 42.156c-5.913 5.634-12.702 8.45-20.365 8.45s-14.452-2.816-20.365-8.45l-347.75-331.297-347.75 331.297c-5.913 5.634-12.702 8.45-20.365 8.45s-14.452-2.816-20.365-8.45l-44.25-42.156c-5.913-5.634-8.87-12.1-8.87-19.402s2.957-13.769 8.87-19.402l412.315-392.807c5.913-5.634 12.702-8.45 20.365-8.45s14.452 2.816 20.365 8.45l412.315 392.807c5.913 5.634 8.87 12.1 8.87 19.402h0.099z" />
<glyph unicode="&#xe910;" glyph-name="angle-up" d="M953.6 208.674c0-7.301-2.957-13.769-8.87-19.402l-44.25-42.156c-5.913-5.634-12.702-8.45-20.365-8.45s-14.452 2.816-20.365 8.45l-347.75 331.297-347.75-331.297c-5.913-5.634-12.702-8.45-20.365-8.45s-14.452 2.816-20.365 8.45l-44.25 42.156c-5.913 5.634-8.87 12.1-8.87 19.402s2.957 13.769 8.87 19.402l412.315 392.807c5.913 5.634 12.702 8.45 20.365 8.45s14.452-2.816 20.365-8.45l412.315-392.807c5.913-5.634 8.87-12.1 8.87-19.402h0.099z" />
<glyph unicode="&#xe911;" glyph-name="caret-down" d="M479.062 150.996c18.091-19.803 47.541-19.672 65.511 0l378.038 413.823c36.319 39.757 22.333 71.988-31.758 71.988h-758.072c-53.859 0-67.71-32.633-31.758-71.988l378.038-413.823z" />
<glyph unicode="&#xe912;" glyph-name="caret-up" d="M479.268 617.595c18.039 20.377 47.072 20.617 65.324 0l367.24-414.849c35.669-40.293 21.025-72.958-33.076-72.958h-733.65c-53.936 0-68.605 32.823-33.076 72.958l367.24 414.849z" />
<glyph unicode="&#xe913;" glyph-name="circle-arrow-down" d="M726.659 509.846c6.823-13.286 5.878-25.818-2.839-37.597l-182.209-255.106c-7.206-10.248-17.082-15.371-29.625-15.371s-22.417 5.124-29.625 15.371l-182.209 255.106c-8.736 11.778-9.685 24.31-2.839 37.597 6.463 13.286 17.285 19.929 32.461 19.929h364.452c15.18 0 25.998-6.643 32.461-19.929h-0.031zM803.54 110.702v546.664c0 4.932-1.806 9.203-5.422 12.819s-7.887 5.422-12.819 5.422h-546.664c-4.932 0-9.203-1.806-12.819-5.422s-5.422-7.887-5.422-12.819v-546.664c0-4.932 1.806-9.203 5.422-12.819s7.887-5.422 12.819-5.422h546.664c4.932 0 9.203 1.806 12.819 5.422s5.422 7.887 5.422 12.819zM949.334 657.332v-546.664c0-45.177-16.041-83.803-48.12-115.882s-70.708-48.12-115.882-48.12h-546.664c-45.177 0-83.803 16.041-115.882 48.12s-48.12 70.708-48.12 115.882v546.664c0 45.177 16.041 83.803 48.12 115.882s70.708 48.12 115.882 48.12h546.664c45.177 0 83.803-16.041 115.882-48.12s48.12-70.708 48.12-115.882v0z" />
<glyph unicode="&#xe914;" glyph-name="circle-arrow-up" d="M726.659 258.154c6.823 13.286 5.878 25.818-2.839 37.597l-182.209 255.106c-7.206 10.248-17.082 15.371-29.625 15.371s-22.417-5.124-29.625-15.371l-182.209-255.106c-8.736-11.778-9.685-24.31-2.839-37.597 6.463-13.286 17.285-19.929 32.461-19.929h364.452c15.18 0 25.998 6.643 32.461 19.929h-0.031zM803.54 657.298v-546.664c0-4.932-1.806-9.203-5.422-12.819s-7.887-5.422-12.819-5.422h-546.664c-4.932 0-9.203 1.806-12.819 5.422s-5.422 7.887-5.422 12.819v546.664c0 4.932 1.806 9.203 5.422 12.819s7.887 5.422 12.819 5.422h546.664c4.932 0 9.203-1.806 12.819-5.422s5.422-7.887 5.422-12.819zM949.334 110.668v546.664c0 45.177-16.041 83.803-48.12 115.882s-70.708 48.12-115.882 48.12h-546.664c-45.177 0-83.803-16.041-115.882-48.12s-48.12-70.708-48.12-115.882v-546.664c0-45.177 16.041-83.803 48.12-115.882s70.708-48.12 115.882-48.12h546.664c45.177 0 83.803 16.041 115.882 48.12s48.12 70.708 48.12 115.882v0z" />
<glyph unicode="&#xe915;" glyph-name="ok" d="M978.667 611.512c0-16.754-5.62-30.997-16.86-42.73l-517.856-540.518c-11.24-11.733-24.886-17.598-40.938-17.598s-29.697 5.866-40.938 17.598l-299.882 313.006c-11.24 11.733-16.86 25.975-16.86 42.73s5.62 30.997 16.86 42.73l81.909 85.493c11.24 11.733 24.886 17.598 40.938 17.598s29.697-5.866 40.938-17.598l177.035-185.417 395.009 412.93c11.24 11.733 24.886 17.598 40.938 17.598s29.697-5.866 40.938-17.598l81.909-85.493c11.24-11.733 16.86-25.975 16.86-42.73v0z" />
<glyph unicode="&#xe916;" glyph-name="close" d="M949.334 117.485c0-19.626-6.872-36.311-20.614-50.056l-100.149-100.149c-13.745-13.745-30.427-20.614-50.056-20.614s-36.311 6.872-50.056 20.614l-216.462 216.462-216.462-216.462c-13.745-13.745-30.427-20.614-50.056-20.614s-36.311 6.872-50.056 20.614l-100.149 100.149c-13.745 13.745-20.614 30.427-20.614 50.056s6.872 36.311 20.614 50.056l216.462 216.462-216.462 216.462c-13.745 13.745-20.614 30.427-20.614 50.056s6.872 36.311 20.614 50.056l100.149 100.149c13.745 13.745 30.427 20.614 50.056 20.614s36.311-6.872 50.056-20.614l216.462-216.462 216.462 216.462c13.745 13.745 30.427 20.614 50.056 20.614s36.311-6.872 50.056-20.614l100.149-100.149c13.745-13.745 20.614-30.427 20.614-50.056s-6.872-36.311-20.614-50.056l-216.462-216.462 216.462-216.462c13.745-13.745 20.614-30.427 20.614-50.056z" />
<glyph unicode="&#xe917;" glyph-name="close-sign" d="M736 251.109c0 10.186-3.721 19.010-11.162 26.473l-106.418 106.418 106.418 106.418c7.44 7.44 11.162 16.266 11.162 26.473 0 10.581-3.721 19.591-11.162 27.033l-52.914 52.912c-7.442 7.44-16.452 11.162-27.033 11.162-10.186 0-19.010-3.721-26.473-11.162l-106.418-106.418-106.418 106.418c-7.44 7.44-16.266 11.162-26.473 11.162-10.581 0-19.591-3.721-27.033-11.162l-52.912-52.912c-7.44-7.44-11.162-16.452-11.162-27.033 0-10.184 3.721-19.010 11.162-26.473l106.418-106.418-106.418-106.418c-7.44-7.442-11.162-16.266-11.162-26.473 0-10.581 3.721-19.591 11.162-27.033l52.912-52.914c7.442-7.44 16.452-11.162 27.033-11.162 10.186 0 19.010 3.721 26.473 11.162l106.418 106.418 106.418-106.418c7.442-7.44 16.266-11.162 26.473-11.162 10.581 0 19.591 3.721 27.033 11.162l52.914 52.914c7.44 7.442 11.162 16.452 11.162 27.033zM960 384c0-81.275-20.024-156.237-60.075-224.882s-94.398-122.992-163.043-163.043c-68.645-40.051-143.607-60.075-224.882-60.075s-156.237 20.024-224.882 60.075c-68.645 40.051-122.992 94.398-163.043 163.043s-60.075 143.607-60.075 224.882c0 81.275 20.024 156.237 60.075 224.882s94.398 122.992 163.043 163.043c68.645 40.051 143.607 60.075 224.882 60.075s156.237-20.024 224.882-60.075c68.645-40.051 122.992-94.398 163.043-163.043s60.075-143.607 60.075-224.882z" />
<glyph unicode="&#xe918;" glyph-name="ok-sign" d="M812.997 478.506c0 10.89-3.496 19.828-10.486 26.82l-53.085 52.497c-7.382 7.382-16.138 11.074-26.264 11.074s-18.882-3.692-26.264-11.074l-238.014-237.426-131.844 131.846c-7.382 7.382-16.138 11.074-26.264 11.074s-18.882-3.692-26.264-11.074l-53.085-52.497c-6.99-6.99-10.486-15.931-10.486-26.82 0-10.498 3.496-19.252 10.486-26.264l211.162-211.162c7.382-7.382 16.138-11.074 26.264-11.074 10.498 0 19.436 3.692 26.82 11.074l316.744 316.744c6.99 6.99 10.486 15.746 10.486 26.264h0.098zM960 384c0-81.275-20.024-156.237-60.075-224.882s-94.398-122.992-163.043-163.043c-68.645-40.051-143.607-60.075-224.882-60.075s-156.237 20.024-224.882 60.075c-68.645 40.051-122.992 94.398-163.043 163.043s-60.075 143.607-60.075 224.882c0 81.275 20.024 156.237 60.075 224.882s94.398 122.992 163.043 163.043c68.645 40.051 143.607 60.075 224.882 60.075s156.237-20.024 224.882-60.075c68.645-40.051 122.992-94.398 163.043-163.043s60.075-143.607 60.075-224.882z" />
<glyph unicode="&#xe919;" glyph-name="play-sign" d="M512 832c81.275 0 156.237-20.024 224.882-60.075s122.992-94.398 163.043-163.043c40.051-68.645 60.075-143.607 60.075-224.882s-20.024-156.237-60.075-224.882c-40.051-68.645-94.398-122.992-163.043-163.043s-143.607-60.075-224.882-60.075c-81.275 0-156.237 20.024-224.882 60.075s-122.992 94.398-163.043 163.043c-40.051 68.645-60.075 143.607-60.075 224.882s20.024 156.237 60.075 224.882c40.051 68.645 94.398 122.992 163.043 163.043s143.607 60.075 224.882 60.075zM736 351.921c12.435 6.99 18.652 17.684 18.652 32.079s-6.217 25.088-18.652 32.079l-317.33 186.661c-12.066 7.382-24.512 7.578-37.339 0.588-12.435-7.382-18.652-18.272-18.652-32.667v-373.355c0-14.395 6.217-25.284 18.652-32.667 6.229-3.113 12.446-4.672 18.652-4.672 6.621 0 12.838 1.753 18.652 5.26l317.364 186.693z" />
<glyph unicode="&#xe91a;" glyph-name="remove" d="M512 469.207l-333.122 333.122c-23.596 23.596-61.72 23.569-85.248 0.041-23.693-23.693-23.511-61.696 0.041-85.248l333.122-333.122-333.122-333.122c-23.596-23.596-23.569-61.72-0.041-85.248 23.693-23.693 61.696-23.511 85.248 0.041l333.122 333.122 333.122-333.122c23.596-23.596 61.72-23.569 85.248-0.041 23.693 23.693 23.511 61.696-0.041 85.248l-333.122 333.122 333.122 333.122c23.596 23.596 23.569 61.72 0.041 85.248-23.693 23.693-61.696 23.511-85.248-0.041l-333.122-333.122z" />
<glyph unicode="&#xe91b;" glyph-name="face-cry" d="M851.408 723.408c-90.658 90.663-211.196 140.592-339.408 140.592s-248.75-49.93-339.408-140.592c-90.663-90.658-140.591-211.196-140.591-339.408 0-93.407 26.856-183.965 77.672-261.881 10.075-15.447 30.761-19.801 46.205-9.733 15.447 10.075 19.802 30.763 9.73 46.21-43.715 67.044-66.827 144.984-66.827 225.404 0 227.849 185.37 413.22 413.219 413.22 227.854 0 413.22-185.37 413.22-413.22s-185.372-413.22-413.22-413.22c-75.448 0-149.264 20.516-213.463 59.328-15.782 9.539-36.305 4.482-45.851-11.3s-4.482-36.305 11.296-45.844c74.623-45.117 160.385-68.964 248.015-68.964 128.207 0 248.75 49.93 339.408 140.592 90.659 90.658 140.591 211.197 140.591 339.408-0.002 128.208-49.93 248.75-140.593 339.408v0zM671.985 597.333c-29.418 0-53.315-23.89-53.315-53.346 0-29.41 23.897-53.32 53.315-53.32 29.491 0 53.351 23.91 53.351 53.32 0.001 29.458-23.86 53.346-53.351 53.346v0 0 0zM352.011 490.666c29.478 0 53.323 23.91 53.323 53.32 0 29.459-23.845 53.349-53.323 53.349-29.368 0-53.343-23.89-53.343-53.349 0.001-29.41 23.955-53.32 53.343-53.32v0 0 0zM512.138 330.665c-86.536 0-162.87-43.998-208.181-111.373-13.949-20.734 1.345-48.628 26.472-48.628h2.46c10.095 0 19.862 4.65 25.575 12.988 33.845 49.232 90.046 81.434 153.673 81.434 63.974 0 120.485-31.74 154.25-81.355 5.684-8.339 15.509-13.049 25.65-13.049h1.532c25.126-0.041 40.434 27.903 26.459 48.61-45.401 67.254-121.573 111.373-207.891 111.373v0 0 0z" />
</font>
</defs>
</svg>
